<svg xmlns="http://www.w3.org/2000/svg" viewBox="0 0 563 304"><defs><style>.cls-1{fill:#fff;}.cls-2{fill:none;}.cls-2,.cls-3,.cls-6{stroke:#fff;stroke-miterlimit:10;}.cls-3{fill:#b3b3b3;}.cls-4{fill:#25ccf7;}.cls-5{fill:#1b9cfc;}.cls-6{fill:#ccc;}</style></defs><title>Asset 1</title><g id="Layer_2" data-name="Layer 2"><g id="Layer_1-2" data-name="Layer 1"><path class="cls-1" d="M671,113"/><path class="cls-2" d="M.5,97.5"/><path class="cls-2" d="M202.5,224.5"/><path class="cls-3" d="M185.5,182.5"/><polygon class="cls-4" points="202 0 523 5 563 193 4 229 202 0"/><path class="cls-1" d="M556,293c-35.53,0-70.13,0-105.63,0h-394C31.86,293,12,273.47,12,249.38v-2.77C12,222.53,31.86,203,56.35,203H557c-9.13,28.94-21.3,58.87-2.5,86.58a2.17,2.17,0,0,1,.2.38Z"/><path class="cls-5" d="M563,290H56a42,42,0,0,1,0-84H563V192H56a56,56,0,0,0,0,112H563Z"/><path class="cls-1" d="M83,226"/><line class="cls-1" x1="64" y1="239" x2="501" y2="238"/><path class="cls-6" d="M44,228s226.53-27.52,471.53-2"/><path class="cls-6" d="M39.6,251s226.53-27.52,471.53-2"/><path class="cls-6" d="M36.56,276s226.53-27.52,471.53-2"/></g></g></svg>